<?xml version="1.0" encoding="UTF-8"?>
<svg width="134px" height="34px" viewBox="0 0 134 34" version="1.1" xmlns="http://www.w3.org/2000/svg" xmlns:xlink="http://www.w3.org/1999/xlink">
    <title>F4DA5B46-58C4-417B-B7E2-02381ED75757@1x</title>
    <defs>
        <polygon id="path-1" points="0.6637125 0.2624875 21.5056875 0.2624875 21.5056875 21.105425 0.6637125 21.105425"></polygon>
        <polygon id="path-3" points="0.0001375 0.2145 38.0417469 0.2145 38.0417469 32.3123625 0.0001375 32.3123625"></polygon>
    </defs>
    <g id="Market-Pulse" stroke="none" stroke-width="1" fill="none" fill-rule="evenodd">
        <g id="Artboard" transform="translate(-32.000000, -20.000000)">
            <g id="Logo-inverted" transform="translate(32.000000, 20.000000)">
                <path d="M76.7853625,22.1366063 C74.9483625,25.1024813 71.664175,27.0783563 67.9193625,27.0783563 C62.1636125,27.0783563 57.49755,22.4129813 57.49755,16.6572313 C57.49755,10.9014812 62.1636125,6.23541875 67.9193625,6.23541875 C71.4173625,6.23541875 74.513175,7.95966875 76.4031125,10.6037938 L72.54005,13.2657938 C71.4971125,11.8461063 69.8154875,10.9255438 67.9193625,10.9255438 C64.753425,10.9255438 62.187675,13.4919813 62.187675,16.6572313 C62.187675,19.8224813 64.753425,22.3889188 67.9193625,22.3889188 C70.02105,22.3889188 71.8587375,21.2572938 72.8563,19.5701688 L76.7853625,22.1366063 Z" id="Fill-1" fill="#045541"></path>
                <g id="Group-5" transform="translate(111.375000, 5.973000)">
                    <mask id="mask-2" fill="white">
                        <use xlink:href="#path-1"></use>
                    </mask>
                    <g id="Clip-4"></g>
                    <path d="M11.0848375,0.2624875 C5.3290875,0.2624875 0.6637125,4.92855 0.6637125,10.6836125 C0.6637125,16.4393625 5.3290875,21.105425 11.0848375,21.105425 C16.8405875,21.105425 21.5059625,16.4393625 21.5059625,10.6836125 C21.5059625,4.92855 16.8405875,0.2624875 11.0848375,0.2624875 M11.0848375,16.4159875 C7.9195875,16.4159875 5.35315,13.84955 5.35315,10.6836125 C5.35315,7.5183625 7.9195875,4.951925 11.0848375,4.951925 C14.2500875,4.951925 16.816525,7.5183625 16.816525,10.6836125 C16.816525,13.84955 14.2500875,16.4159875 11.0848375,16.4159875" id="Fill-3" fill="#045541" mask="url(#mask-2)"></path>
                </g>
                <polygon id="Fill-6" fill="#045541" points="110.944212 11.1251937 110.944212 6.51138125 101.640962 6.51138125 96.2124625 6.51138125 96.2124625 11.1251937 96.2124625 14.6575687 96.2124625 19.1936937 96.2124625 26.8022562 101.54815 26.8022562 101.54815 19.1936937 108.90715 19.1936937 108.90715 14.6575687 101.54815 14.6575687 101.54815 11.1251937"></polygon>
                <path d="M93.032225,22.43945 L93.032225,26.802325 L79.0312875,26.802325 C78.89035,26.010325 78.8051,25.303575 78.8051,24.624325 C78.8051,17.1573875 87.5452875,15.82845 87.5452875,12.914825 C87.5452875,11.5006375 86.4136625,10.9066375 85.3672875,10.9066375 C83.4436625,10.9066375 82.3691,13.05645 82.3691,13.05645 L78.69235,10.5952 C78.69235,10.5952 80.5589125,6.2398875 85.8196625,6.2398875 C89.1292875,6.2398875 92.721475,8.1346375 92.721475,12.4342625 C92.721475,18.6437625 84.826225,19.9183875 84.4460375,22.43945 L93.032225,22.43945 Z" id="Fill-8" fill="#045541"></path>
                <g id="Group-12" transform="translate(0.000000, 0.473000)">
                    <mask id="mask-4" fill="white">
                        <use xlink:href="#path-3"></use>
                    </mask>
                    <g id="Clip-11"></g>
                    <path d="M37.3007938,13.3401125 C38.2887313,14.32805 38.2887313,15.9292375 37.3007938,16.9164875 L34.4057313,19.81155 C32.2407938,21.977175 28.7297313,21.977175 26.5647938,19.81155 L31.2480438,15.1283 L21.3191688,5.199425 C20.3319188,4.2114875 18.7300438,4.2114875 17.7427938,5.199425 L7.33266875,15.60955 C6.34541875,16.5968 6.34541875,18.1979875 7.33266875,19.185925 L20.4597938,32.3123625 L14.8071688,32.3123625 C13.4060438,32.3123625 12.0619813,31.756175 11.0712938,30.7654875 L1.62435625,21.3178625 C-0.54126875,19.152925 -0.54126875,15.64255 1.62435625,13.476925 L14.1457938,0.9548 C14.6201688,0.480425 15.2636688,0.2143625 15.9346688,0.2143625 L23.1272938,0.2143625 C23.7982938,0.2143625 24.4411063,0.480425 24.9154813,0.9548 L37.3007938,13.3401125 Z" id="Fill-10" fill="#69A33B" mask="url(#mask-4)"></path>
                </g>
                <path d="M34.80455,32.7855 C35.47555,32.7855 36.1183625,32.5194375 36.5927375,32.0450625 L49.11555,19.52225 C51.281175,17.356625 51.281175,13.84625 49.11555,11.6813125 L39.6693,2.234375 C38.6786125,1.2436875 37.3352375,0.6875 35.9341125,0.6875 L30.2814875,0.6875 L43.40655,13.81325 C44.3944875,14.8005 44.3944875,16.4016875 43.40655,17.389625 L32.9971125,27.79975 C32.009175,28.787 30.4079875,28.787 29.4207375,27.79975 L19.4918625,17.8701875 L24.1751125,13.1869375 C22.0094875,11.022 18.4991125,11.022 16.334175,13.1869375 L15.57105,13.9500625 L13.4391125,16.082 C12.451175,17.0699375 12.451175,18.671125 13.4391125,19.6590625 L15.57105,21.791 L25.8251125,32.0450625 C26.2994875,32.5194375 26.9423,32.7855 27.6133,32.7855 L34.80455,32.7855 Z" id="Fill-13" fill="#69A33B"></path>
            </g>
        </g>
    </g>
</svg>